<?xml version="1.0" encoding="UTF-8"?>
<svg xmlns="http://www.w3.org/2000/svg" viewBox="0 0 128 128">
  <defs>
    <linearGradient id="paper" x1="0" y1="0" x2="1" y2="1">
      <stop offset="0" stop-color="#fffdf6"/>
      <stop offset="1" stop-color="#efe6c9"/>
    </linearGradient>
    <linearGradient id="fold" x1="0" y1="0" x2="1" y2="1">
      <stop offset="0" stop-color="#fdf8e7"/>
      <stop offset="1" stop-color="#dccfa8"/>
    </linearGradient>
  </defs>

  <rect x="12" y="10" width="104" height="108" rx="14" fill="#d6c48c"/>
  <path d="M28 14h50l26 26v62c0 7.73-6.27 14-14 14H28c-7.73 0-14-6.27-14-14V28c0-7.73 6.27-14 14-14z"
        fill="url(#paper)" stroke="#2b241c" stroke-width="5" stroke-linejoin="round"/>
  <path d="M78 14v20c0 4.42 3.58 8 8 8h18" fill="url(#fold)" stroke="#2b241c" stroke-width="5" stroke-linejoin="round"/>

  <rect x="28" y="40" width="16" height="16" rx="3" fill="#ffffff" stroke="#2b241c" stroke-width="4"/>
  <path d="M31 48l4 4 7-9" fill="none" stroke="#2f7d32" stroke-width="5" stroke-linecap="round" stroke-linejoin="round"/>
  <rect x="28" y="62" width="16" height="16" rx="3" fill="#ffffff" stroke="#2b241c" stroke-width="4"/>
  <path d="M31 70l4 4 7-9" fill="none" stroke="#2f7d32" stroke-width="5" stroke-linecap="round" stroke-linejoin="round"/>
  <rect x="28" y="84" width="16" height="16" rx="3" fill="#ffffff" stroke="#2b241c" stroke-width="4"/>

  <rect x="52" y="42" width="34" height="6" rx="3" fill="#2b241c"/>
  <rect x="52" y="48" width="28" height="5" rx="2.5" fill="#8a7a53"/>
  <rect x="52" y="64" width="30" height="6" rx="3" fill="#2b241c"/>
  <rect x="52" y="70" width="24" height="5" rx="2.5" fill="#8a7a53"/>
  <rect x="52" y="86" width="26" height="6" rx="3" fill="#2b241c"/>
  <rect x="52" y="92" width="20" height="5" rx="2.5" fill="#8a7a53"/>
</svg>
